<svg width="24" height="24" viewBox="0 0 24 24" fill="none" xmlns="http://www.w3.org/2000/svg">
<path d="M22.56 12.25C22.56 18.5 17.31 23.75 11.06 23.75C4.81 23.75 -0.44 18.5 -0.44 12.25C-0.44 6 4.81 0.75 11.06 0.75C17.31 0.75 22.56 6 22.56 12.25Z" fill="#4285F4"/>
<path d="M14.95 11.46L12.13 9.53C11.87 9.34 11.5 9.34 11.24 9.53L8.42 11.46C8.16 11.65 8 11.97 8 12.31V16.19C8 16.53 8.16 16.85 8.42 17.04L11.24 18.97C11.5 19.16 11.87 19.16 12.13 18.97L14.95 17.04C15.21 16.85 15.37 16.53 15.37 16.19V12.31C15.37 11.97 15.21 11.65 14.95 11.46Z" fill="white"/>
<path d="M11.69 15.5C11.39 15.5 11.16 15.27 11.16 14.97V11.03C11.16 10.73 11.39 10.5 11.69 10.5C11.99 10.5 12.22 10.73 12.22 11.03V14.97C12.22 15.27 11.99 15.5 11.69 15.5Z" fill="#4285F4"/>
</svg>